/* XPM */
static char *launch__[] = {
/* columns rows colors chars-per-pixel */
"48 48 256 2 ",
"   c #010100",
".  c #0A0B06",
"X  c #141800",
"o  c #1D2800",
"O  c #2B3A00",
"+  c #273404",
"@  c #2D3419",
"#  c #222D0B",
"$  c #353633",
"%  c #373F22",
"&  c #2E4100",
"*  c #334500",
"=  c #354C00",
"-  c #3A4C00",
";  c #36490C",
":  c #3B5300",
">  c #3F5A00",
",  c #3B510B",
"<  c #3A481B",
"1  c #3E4927",
"2  c #435700",
"3  c #445B01",
"4  c #495E01",
"5  c #4A5E0D",
"6  c #545D16",
"7  c #446300",
"8  c #4C6301",
"9  c #4C6A01",
"0  c #4B610A",
"q  c #476B00",
"w  c #526B03",
"e  c #516A09",
"r  c #59650E",
"t  c #4B7300",
"y  c #567203",
"u  c #5A7502",
"i  c #5D7B02",
"p  c #567704",
"a  c #4D6516",
"s  c #52641B",
"d  c #546614",
"f  c #5A7316",
"g  c #617E01",
"h  c #627D0B",
"j  c #646B12",
"k  c #787612",
"l  c #6E7411",
"z  c #4A5432",
"x  c #576826",
"c  c #677A32",
"v  c #433F4E",
"b  c #474848",
"n  c #575D4F",
"m  c #656B5C",
"M  c #615F65",
"N  c #65717D",
"B  c #6B6F6D",
"V  c #83641E",
"C  c #867A11",
"Z  c #89720D",
"A  c #AE7819",
"S  c #B37918",
"D  c #8C6E2A",
"F  c #A47F27",
"G  c #4E8804",
"H  c #588605",
"J  c #4F9103",
"K  c #5B9701",
"L  c #648303",
"P  c #648B01",
"I  c #6C8C01",
"U  c #658508",
"Y  c #6D9300",
"T  c #699806",
"R  c #729400",
"E  c #739B00",
"W  c #799D00",
"Q  c #739709",
"!  c #678814",
"~  c #79851B",
"^  c #789813",
"/  c #5EA202",
"(  c #6DA301",
")  c #64A403",
"_  c #7BA300",
"`  c #79AA05",
"'  c #759130",
"]  c #7D8C52",
"[  c #7E8B6D",
"{  c #84861A",
"}  c #8F8F18",
"|  c #BB821C",
" . c #B18B15",
".. c #82A600",
"X. c #82AA02",
"o. c #89B208",
"O. c #85A21F",
"+. c #96BA1A",
"@. c #8AB714",
"#. c #BCB80F",
"$. c #8B8D22",
"%. c #969529",
"&. c #8B9827",
"*. c #B68A28",
"=. c #BD922B",
"-. c #B89437",
";. c #A78E2A",
":. c #8DAF2A",
">. c #94AE2E",
",. c #A7A539",
"<. c #B9A932",
"1. c #D5930F",
"2. c #C7891C",
"3. c #D7951A",
"4. c #CB9414",
"5. c #EA9C1C",
"6. c #F39E17",
"7. c #EAA317",
"8. c #FAA316",
"9. c #FEA41A",
"0. c #FFA91D",
"q. c #F3AA1C",
"w. c #F2AD17",
"e. c #C08C23",
"r. c #C89829",
"t. c #D09C2C",
"y. c #DAA629",
"u. c #D6A937",
"i. c #DCB23F",
"p. c #E9A826",
"a. c #FEAE23",
"s. c #F3AC27",
"d. c #EBB129",
"f. c #FEB52A",
"g. c #FFBC2E",
"h. c #F8B227",
"j. c #E8B636",
"k. c #FEBD32",
"l. c #F5BB34",
"z. c #D5A90D",
"x. c #97C81C",
"c. c #A4CD0F",
"v. c #AEE301",
"b. c #AAD133",
"n. c #9AC529",
"m. c #CCF606",
"M. c #DFC238",
"N. c #FFC236",
"B. c #FFC53A",
"V. c #FECA3D",
"C. c #F3C336",
"Z. c #EEC03B",
"A. c #D0F82C",
"S. c #B89747",
"D. c #9BB646",
"F. c #8BA356",
"G. c #AFAC44",
"H. c #BBB347",
"J. c #B5AF43",
"K. c #8C9872",
"L. c #A8B77E",
"P. c #8C9D63",
"I. c #C7BC4E",
"U. c #C8A956",
"Y. c #D2B64F",
"T. c #E3BF56",
"R. c #D9BC68",
"E. c #D2B870",
"W. c #AAC842",
"Q. c #B0CD49",
"!. c #AEC856",
"~. c #A5C76A",
"^. c #D4C657",
"/. c #FFCA43",
"(. c #FFCD4B",
"). c #F9C544",
"_. c #FFD243",
"`. c #FFD449",
"'. c #F9D94A",
"]. c #E9C154",
"[. c #FFCF51",
"{. c #FFD254",
"}. c #FED45B",
"|. c #FFDA59",
" X c #ECCE4A",
".X c #C8ED52",
"XX c #FFE25D",
"oX c #DEC477",
"OX c #D1D16F",
"+X c #E2C467",
"@X c #EAD46B",
"#X c #FED661",
"$X c #FFD965",
"%X c #FEDC6C",
"&X c #F4D766",
"*X c #FCDD74",
"=X c #F6D979",
"-X c #E4CA75",
";X c #FDE177",
":X c #6D7A84",
">X c #798590",
",X c #828D97",
"<X c #8B9092",
"1X c #A19E9E",
"2X c #AAB982",
"3X c #B1BD87",
"4X c #8D99A1",
"5X c #969CAB",
"6X c #9AA4AD",
"7X c #9CA5B4",
"8X c #A0A8AF",
"9X c #A3ACB3",
"0X c #A5ABBC",
"qX c #ADB5BC",
"wX c #B2B7B7",
"eX c #B0B5A2",
"rX c #D3BF83",
"tX c #C0BCBD",
"yX c #CADD80",
"uX c #E4CD89",
"iX c #EAD787",
"pX c #E9D697",
"aX c #F1DC93",
"sX c #F6DD83",
"dX c #FDE484",
"fX c #FBE48B",
"gX c #FCE989",
"hX c #FAE696",
"jX c #FFF29C",
"kX c #CAD4AA",
"lX c #EBDAA7",
"zX c #DAE6A6",
"xX c #F7E7A7",
"cX c #FFF2A8",
"vX c #F5E7B7",
"bX c #FDF4B3",
"nX c #FFF6BC",
"mX c #EFE0B1",
"MX c #D8E993",
"NX c #B4BAC3",
"BX c #B3B9CC",
"VX c #D3D7DB",
"CX c #C9CED4",
"ZX c #F7EDC8",
"AX c #FEF5CC",
"SX c #FFF8C7",
"DX c #FEF8D7",
"FX c #F6ECD2",
"GX c #DADDE3",
"HX c #DEE0E5",
"JX c #FDF9EC",
"KX c #FCF8E6",
"LX c #FFFDF3",
"PX c #FFFEF8",
"IX c #EFEFF0",
"UX c None",
/* pixels */
"UXUXUXUXUXUXUXUXUXUXUXUXUXUXUXUXUXUXUXUXqXqX8X8X8X9XqXNXUXUXUXUXUXUXUXUXUXUXUXUXUXUXUXUXUXUXUXUX",
"UXUXUXUXUXUXUXUXUXUXUXUXUXUXUXUXVXNX5X,X>X:XN N N :X>X,X,X6XqXUXUXUXUXUXUXUXUXUXUXUXUXUXUXUXUXUX",
"UXUXUXUXUXUXUXUXUXUXUXUXUXUXUXCX6X>XUXUXUXUXUXUXUXUXUXUXUXUX,X9XNXUXUXUXUXUXUXUXUXUXUXUXUXUXUXUX",
"UXUXUXUXUXUXUXUXUXUXUXUXUXUXVX4XUXUXUXUXUXUXUXUXUXUXUXUXUXUXUXUXNXUXUXUXUXUXUXUXUXUXUXUXUXUXUXUX",
"UXUXUXUXUXUXUXUXUXUXUXUXUXUXqXUXUXUXUXUXUXUXUXUXUXUXUXUXUXUXUXUXVXqXUXUXUXUXUXUXUXUXUXUXUXUXUXUX",
"UXUXUXUXUXUXUXUXUXUXUXUXUXUX8XUXUXUXUXUXUXUXUXUXUXUXUXUXUXUXUXUXGX7XUXUXUXUXUXUXUXUXUXUXUXUXUXUX",
"UXUXUXUXUXUXUXUXUXUXUXUXUXUX7XUXUXUXUXUXUXUXUXUXUXUXUXUXUXUXUXUXGX4XUXUXUXUXUXUXUXUXUXUXUXUXUXUX",
"UXUXUXUXUXUXUXUXUXUXIXCXUXUXNXUXUXUXUXUXUXUXUXUXUXUXUXUXUXUXUXUXHX7XUXUXIXUXUXUXUXUXUXUXUXUXUXUX",
"UXUXUXUXUXUXUXUXUXUXGX5XUXkXK.H y 9 8 UXUXUXUXUXUXUXUXUXUXm.m.v.b.W.F.9X9XqXUXUXUXUXUXUXUXUXUXUX",
"UXUXUXUXUXUXUXUXUXUXwX2X>.T H e 2 = * = UXUXUXVXGXUXUXUXA..Xb.@.` ` o.:.P.UXUXUXUXUXUXUXUXUXUXUX",
"UXUXUXUXUXUXUXUXUXUXn.` J t 7 > = & + o + UXUXNXNXUXUXv.b.D.! p t p H P ^ ^ UXUXUXUXUXUXUXUXUXUX",
"UXUXUXUXUXUXUXUXUXb.:.H q 7 > = & + @ z n UXUXUXUXUXUXF.' f 7 > 7 3 7 q t p i UXUXUXUXUXUXUXUXUX",
"UXUXUXUXUXUXUXUX.X~.! t > , & ; 1 m <XUXUXUXUXD.:.UXUXUXUX,Xm x , = > > > > 3 9 UXUXUXUXUXUXUXUX",
"UXUXUXUXUXUXUXm.n.! q > = x n n <XL.b.+.o.X.X.X.X.X.X.X.X.UXK.:XM [ < = = = = = 2 UXUXUXUXUXUXUX",
"UXUXUXUXUXUXUXm.) t 7 ; 1 ,XNX3X!.+.` T T J H H P P Y E W ....~ eXBXb # + O O O O UXUXUXUXUXUXUX",
"UXUXUXUXUXUXUXv.) a z n M kXOXn.) J H ~ %.,.H.H.J.,.$.U h P R W :.P.UXv $ @ # o + UXUXUXUXUXUXUX",
"UXUXUXUXUXUXUXx.:.B UXUXMXQ.` J ! ,.^.hXbXnXnXnXbXcXgX@XH.~ i P Y R R UXUXUX$ @ UXUXUXUXUXUXUXUX",
"UXUXUXUXUXUXUXUXUXUXUXzXW.) J %.OXbXDXDXAXZXvXvXlXxXcXcXjX;XH.l i I I I UXUXUXUXUXUXUXUXUXUXUXUX",
"UXUXUXUXUXUXUXUXUXUXyXn./ H H.bXLXLXJXKXDXmXlXxXpXaXhXhXhXfXgX'.{ e L I L UXUXUXUXUXUXUXUXUXUXUX",
"UXUXUXUXUXUXUXUXUXUX!.) H ^.SXPXJXJXJXFXnXhXiXE.E.sXdXdX-XOXgXXX'.%.e g L UXUXUXUXUXUXUXUXUXUXUX",
"UXUXUXUXUXUXUXUXUXQ.` G H.DXPXJXJXKXZXpXhXfXsXE.+X;X;X;X@XR.*X`.'.'.{ 8 g g UXUXUXUXUXUXUXUXUXUX",
"UXUXUXUXUXUXUXUXQ.@.J ,.bXPXLXJXJXFXhXiXdX*X*XE.+X%X$X%X&X+X$X`.`._.M.f 8 u y UXUXUXUXUXUXUXUXUX",
"UXUXUXUXUXUXUXUX+./ ! aXKXDXAXZXFXhXfX=X*X%X&XS.Y.}.}.}.}.#X|._. Xj.C.<.5 y y UXUXUXUXUXUXUXUXUX",
"UXUXUXUXUXUXUX+.` J G.SXFXvXmXpXuXdX;X*X#X}.}.S.Y.{.{.{.{.}._._.Z.r.y.C.l 8 w w UXUXUXUXUXUXUXUX",
"UXUXUXUXUXUXUXo.) ! -XDXSXmXpXpXE.=X%X#X}.(.[.-.u.(.(.(.(.(././.j.=.j.N. .0 w 8 UXUXUXUXUXUXUXUX",
"UXUXUXUXUXUXUXo.H &.bXDXvXxXaXuXoX&X#X{.(.(.(.-.u./././././.V./.u.r.d.k.y.e 8 8 UXUXUXUXUXUXUXUX",
"UXUXUXUXUXUXUX` G G.SXAXbXxXfX*X%X#X{.[.(././.-.j.V.B.B.B.B.B.B.B.B.k.g.d.l 8 8 8 UXUXUXUXUXUXUX",
"UXUXUXUXUXUXX._ H ^.SXnXxXjXdX*X#X}.[././.B.B.u.j.B.B.B.B.B.B.B.B.l.d.h.d.k 0 8 8 UXUXUXUXUXUXUX",
"UXUXUXUXUXUXX.( p @XAXmXpXiX*X%X}.{././.B./.T.S.t.V.B.B.B.B.B.N.N.d.e.3.f.C a 8 8 UXUXUXUXUXUXUX",
"UXUXUXUXUXUX..E ! @XSXlXuXuX*X#X}.(./.).B.).S.D k *.*.;.F ;.r.u.l.l.| 2.a.Z 5 4 8 UXUXUXUXUXUXUX",
"UXUXUXUXUXUX..E i @XbXxXuXoX%X#X{.(.).).B.B.e.V D S.r.=.*.r.y.j.k.s.2.S q.Z s 4 4 UXUXUXUXUXUXUX",
"UXUXUXUXUXUX_ _ i Y.bXxXuX=X%X#X[././.B.B.B.l.y.T.B.B.B.B.B.k.g.k.d.3.6.q.k s 4 4 UXUXUXUXUXUXUX",
"UXUXUXUXUXUX_ _ H ,.jXcXfX-X+X{.{././.B.B.k.B.B.B.B.N.B.T.g.k.k.y.r.0.0.1.j d 3 4 UXUXUXUXUXUXUX",
"UXUXUXUXUXUXUXW P k dXcXfXR.U.].{.)./.B.B.B.B.k.B.k.B.k.k.k.g.h.| S 0.9.2.6 d 3 UXUXUXUXUXUXUXUX",
"UXUXUXUXUXUXUXW Y h ^.cXfXR.U.].{.(.).V.B.k.B.B.B.B.N.k.k.k.f.t.A A 6.8.Z x 5 3 UXUXUXUXUXUXUXUX",
"UXUXUXUXUXUXUXW E p %.gXfXR.U.T.}.).).V.B.B.k.B.N.k.B.k.l.p.s.5.3.S 8.1.6 x 3 3 UXUXUXUXUXUXUXUX",
"UXUXUXUXUXUXUXUXR P h ^.gX;X@X}.{.Y.*.=.B.B.N.l.l.k.k.k.e.A s.a.0.8.8.Z x 6 2 UXUXUXUXUXUXUXUXUX",
"UXUXUXUXUXUXUXUXR Y i k &X;X|.`._.V.r.y.B.B.d.r.y.k.k.f.3.*.3.a.9.9. .a c 2 3 UXUXUXUXUXUXUXUXUX",
"UXUXUXUXUXUXUXUXUXR P w %.'.'._._.Z.*.C.N.N.e.*.y.k.g.f.p.A 2.9.9.1.j m 5 2 UXUXUXUXUXUXUXUXUXUX",
"UXUXUXUXUXUXUXUXUXUXI g e %.'.`.V.j.j.N.N.N.=.e.A h.f.a.5.3.6.9.1.k ' s 2 UXUXUXUXUXUXUXUXUXUXUX",
"UXUXUXUXUXUXUXUXUXUXI I g e { j.V.V.N.N.f.N.p.| 3.a.a.0.8.8.8.4.O.] x 2 3 UXUXUXUXUXUXUXUXUXUXUX",
"UXUXUXUXUXUXUXUXUXUXUXR U g e j ;.l.N.N.N.a.f.s.a.a.9.9.8.7.#.!.L.x 2 4 UXUXUXUXUXUXUXUXUXUXUXUX",
"UXUXUXUXUXUXUXUXUXUXUXUXU U i y 0 r } r.z.7.q.q.7.7.z.z.#.c.D.P.d 2 3 UXUXUXUXUXUXUXUXUXUXUXUXUX",
"UXUXUXUXUXUXUXUXUXUXUXUXUXL.! i g r 8 0 j l Z C { { } O.&.c d 2 s ] UXUXUXUXUXUXUXUXUXUXUXUXUXUX",
"UXUXUXUXUXUXUXUXUXUXUXUXVXeX% 2 y u u w e e d d f f f r 0 4 4 * z wX1XUXUXUXUXUXUXUXUXUXUXUXUXUX",
"UXUXUXUXUXUXUXUXUXUXUX. M $     X * 4 w w y 9 w 8 8 4 4 - O X     v B .   UXUXUXUXUXUXUXUXUXUXUX",
"UXUXUXUXUXUXUXUXUXUXUXUXUXUXUXUXUX  . o O - - - - * O o .       UXUXUXUXUXUXUXUXUXUXUXUXUXUXUXUX",
"UXUXUXUXUXUXUXUXUXUXUXUXUXUXUXUXUXUXUXUXUXUXUXUXUXUXUXUXUXUXUXUXUXUXUXUXUXUXUXUXUXUXUXUXUXUXUXUX"
};
