/* XPM */
static char * Classic_Timer_icon_48_xpm[] = {
"48 48 651 2",
"  	c None",
". 	c #3C3939",
"+ 	c #3F3C3C",
"@ 	c #3A3939",
"# 	c #383536",
"$ 	c #434040",
"% 	c #4A4747",
"& 	c #4F4D4D",
"* 	c #545151",
"= 	c #575454",
"- 	c #595657",
"; 	c #595757",
"> 	c #585555",
", 	c #555353",
"' 	c #514E4E",
") 	c #4B4848",
"! 	c #454242",
"~ 	c #3A3737",
"{ 	c #3E3C3C",
"] 	c #464343",
"^ 	c #4D4A4A",
"/ 	c #565454",
"( 	c #605D5D",
"_ 	c #696767",
": 	c #6F6D6E",
"< 	c #747272",
"[ 	c #787676",
"} 	c #7A7879",
"| 	c #7B7879",
"1 	c #7B7878",
"2 	c #777575",
"3 	c #716F6F",
"4 	c #686565",
"5 	c #5D5A5A",
"6 	c #444242",
"7 	c #403D3D",
"8 	c #444141",
"9 	c #626060",
"0 	c #6C6A6A",
"a 	c #6E6C6C",
"b 	c #636262",
"c 	c #686768",
"d 	c #767676",
"e 	c #7B7A7B",
"f 	c #7E7E7F",
"g 	c #828181",
"h 	c #7B7B7B",
"i 	c #7D7C7C",
"j 	c #8A8888",
"k 	c #8A8889",
"l 	c #494646",
"m 	c #565353",
"n 	c #5F5C5C",
"o 	c #676565",
"p 	c #666667",
"q 	c #828383",
"r 	c #9E9E9F",
"s 	c #A5A6A6",
"t 	c #A4A4A5",
"u 	c #A8A8A9",
"v 	c #ACACAD",
"w 	c #B2B3B3",
"x 	c #B0B0B1",
"y 	c #9D9E9E",
"z 	c #909090",
"A 	c #939091",
"B 	c #898788",
"C 	c #7C7A7A",
"D 	c #676464",
"E 	c #4F4C4C",
"F 	c #4E4A4A",
"G 	c #5C5959",
"H 	c #585656",
"I 	c #656363",
"J 	c #787879",
"K 	c #939393",
"L 	c #9E9F9F",
"M 	c #9A9B9B",
"N 	c #9B9B9B",
"O 	c #9C9C9D",
"P 	c #ABACAD",
"Q 	c #A0A0A1",
"R 	c #BCBDBE",
"S 	c #B4B5B5",
"T 	c #AAABAB",
"U 	c #AEAEAF",
"V 	c #B3B3B4",
"W 	c #B8B9B9",
"X 	c #B3B4B4",
"Y 	c #999998",
"Z 	c #918F8F",
"` 	c #747171",
" .	c #595656",
"..	c #413E3E",
"+.	c #504C4C",
"@.	c #777778",
"#.	c #909190",
"$.	c #959595",
"%.	c #949595",
"&.	c #989898",
"*.	c #989899",
"=.	c #9A999A",
"-.	c #C5C5C6",
";.	c #C3C3C4",
">.	c #D4D4D5",
",.	c #BDBEBE",
"'.	c #A9AAAA",
").	c #ABACAC",
"!.	c #AFB0B0",
"~.	c #B5B6B6",
"{.	c #B8B8B9",
"].	c #B9B9BA",
"^.	c #AAAAAB",
"/.	c #959494",
"(.	c #5F5D5D",
"_.	c #423F3F",
":.	c #3E3B3B",
"<.	c #5C5858",
"[.	c #5B5A5A",
"}.	c #7F8080",
"|.	c #A6A6A7",
"1.	c #D5D5D5",
"2.	c #BEBFBF",
"3.	c #CCCCCC",
"4.	c #949495",
"5.	c #979798",
"6.	c #979898",
"7.	c #9B9C9C",
"8.	c #BCBCBD",
"9.	c #C1C2C2",
"0.	c #CBCBCC",
"a.	c #BBBBBC",
"b.	c #A6A5A7",
"c.	c #ADACAE",
"d.	c #B0B1B1",
"e.	c #C2C3C3",
"f.	c #D1D2D2",
"g.	c #B2B2B3",
"h.	c #9E9D9D",
"i.	c #969595",
"j.	c #817E7E",
"k.	c #3B3838",
"l.	c #504D4D",
"m.	c #585454",
"n.	c #615F5F",
"o.	c #8F8F8F",
"p.	c #A0A0A0",
"q.	c #C8C8C8",
"r.	c #C9C9C9",
"s.	c #D4D4D4",
"t.	c #9E9E9E",
"u.	c #979797",
"v.	c #A2A2A3",
"w.	c #A4A4A4",
"x.	c #A3A3A4",
"y.	c #BBBCBC",
"z.	c #D2D3D3",
"A.	c #BDBDBE",
"B.	c #C0C0C1",
"C.	c #B7B8B8",
"D.	c #A1A1A1",
"E.	c #7F7D7D",
"F.	c #5B5858",
"G.	c #3B3939",
"H.	c #444040",
"I.	c #5B5757",
"J.	c #919191",
"K.	c #929292",
"L.	c #AFAFAF",
"M.	c #ABABAB",
"N.	c #949494",
"O.	c #A3A3A3",
"P.	c #AFAFB0",
"Q.	c #ADAEAE",
"R.	c #BDBDBF",
"S.	c #B6B7B7",
"T.	c #BABABB",
"U.	c #BEBEBF",
"V.	c #C1C1C1",
"W.	c #A3A2A2",
"X.	c #969495",
"Y.	c #797676",
"Z.	c #413F3F",
"`.	c #5A5757",
" +	c #818181",
".+	c #BCBCBC",
"++	c #9F9F9F",
"@+	c #A7A7A7",
"#+	c #858585",
"$+	c #868686",
"%+	c #878888",
"&+	c #8D8D8E",
"*+	c #AEAFB0",
"=+	c #C4C5C6",
"-+	c #ACACAC",
";+	c #B1B2B2",
">+	c #BFC0C0",
",+	c #C1C1C2",
"'+	c #B7B7B7",
")+	c #A09E9E",
"!+	c #6B6969",
"~+	c #464242",
"{+	c #535151",
"]+	c #717070",
"^+	c #8D8D8D",
"/+	c #9A9A9A",
"(+	c #9D9D9D",
"_+	c #B4B4B4",
":+	c #737373",
"<+	c #5F5F5F",
"[+	c #404040",
"}+	c #464647",
"|+	c #484849",
"1+	c #636363",
"2+	c #505050",
"3+	c #5D5D5E",
"4+	c #7B7B7C",
"5+	c #8F9091",
"6+	c #AEAFAF",
"7+	c #AFB0B1",
"8+	c #BCBDBD",
"9+	c #BFBFC0",
"0+	c #C2C2C3",
"a+	c #ACADAD",
"b+	c #999999",
"c+	c #858383",
"d+	c #B1B1B1",
"e+	c #ADADAD",
"f+	c #A8A8A8",
"g+	c #8E8E8E",
"h+	c #898989",
"i+	c #474747",
"j+	c #4B4B4B",
"k+	c #555555",
"l+	c #424243",
"m+	c #575859",
"n+	c #48484A",
"o+	c #565758",
"p+	c #717272",
"q+	c #737474",
"r+	c #7D7E7E",
"s+	c #A7A8A8",
"t+	c #B1B1B2",
"u+	c #B4B4B5",
"v+	c #C3C4C4",
"w+	c #CFD0D0",
"x+	c #C5C5C5",
"y+	c #969494",
"z+	c #726F6F",
"A+	c #484545",
"B+	c #545252",
"C+	c #C7C7C7",
"D+	c #C0C0C0",
"E+	c #DDDDDD",
"F+	c #8B8B8B",
"G+	c #9C9C9C",
"H+	c #3E3E3E",
"I+	c #565656",
"J+	c #5A5A5A",
"K+	c #585858",
"L+	c #555556",
"M+	c #3F3F40",
"N+	c #565657",
"O+	c #575657",
"P+	c #707171",
"Q+	c #7B7C7C",
"R+	c #818282",
"S+	c #79797A",
"T+	c #D7D8D8",
"U+	c #C9C8CA",
"V+	c #DFDFE0",
"W+	c #CBCCCC",
"X+	c #BABABA",
"Y+	c #989797",
"Z+	c #4A4646",
"`+	c #666565",
" @	c #8C8C8C",
".@	c #BBBBBB",
"+@	c #848484",
"@@	c #575757",
"#@	c #595959",
"$@	c #3E3E3F",
"%@	c #555557",
"&@	c #929293",
"*@	c #474748",
"=@	c #6F6F70",
"-@	c #7F8081",
";@	c #848585",
">@	c #A1A2A2",
",@	c #C4C5C5",
"'@	c #D6D7D7",
")@	c #C5C6C6",
"!@	c #A6A5A6",
"~@	c #919090",
"{@	c #5E5B5B",
"]@	c #717171",
"^@	c #545454",
"/@	c #4F4F4F",
"(@	c #3B3B3C",
"_@	c #555657",
":@	c #6E6E6F",
"<@	c #767778",
"[@	c #7E7F7F",
"}@	c #828384",
"|@	c #848485",
"1@	c #BEBFC0",
"2@	c #B5B5B6",
"3@	c #AEAEAE",
"4@	c #9B9999",
"5@	c #4E4B4B",
"6@	c #555151",
"7@	c #625F5F",
"8@	c #828282",
"9@	c #757575",
"0@	c #444444",
"a@	c #3C3C3C",
"b@	c #39393A",
"c@	c #919292",
"d@	c #454546",
"e@	c #6D6D6E",
"f@	c #757676",
"g@	c #818283",
"h@	c #858586",
"i@	c #7C7D7D",
"j@	c #B3B3B3",
"k@	c #9F9E9F",
"l@	c #868484",
"m@	c #595555",
"n@	c #5D5D5D",
"o@	c #303030",
"p@	c #363637",
"q@	c #555456",
"r@	c #919192",
"s@	c #444446",
"t@	c #606060",
"u@	c #6C6D6D",
"v@	c #747575",
"w@	c #818081",
"x@	c #ADAEAF",
"y@	c #BBBCBD",
"z@	c #8F8E8E",
"A@	c #636060",
"B@	c #4B4747",
"C@	c #5F5B5B",
"D@	c #575656",
"E@	c #B0B0B0",
"F@	c #7F7F7F",
"G@	c #343434",
"H@	c #2F2F2F",
"I@	c #333333",
"J@	c #535454",
"K@	c #909091",
"L@	c #444445",
"M@	c #6B6D6D",
"N@	c #737475",
"O@	c #7A7B7C",
"P@	c #7E7F80",
"Q@	c #838485",
"R@	c #808182",
"S@	c #9C9D9D",
"T@	c #959393",
"U@	c #4C4949",
"V@	c #615C5C",
"W@	c #616161",
"X@	c #686868",
"Y@	c #313131",
"Z@	c #313132",
"`@	c #535354",
" #	c #434344",
".#	c #636364",
"+#	c #6D6D6D",
"@#	c #797A7B",
"##	c #7D7E7F",
"$#	c #838384",
"%#	c #8E8E8F",
"&#	c #A4A5A6",
"*#	c #737272",
"=#	c #474545",
"-#	c #615E5E",
";#	c #646464",
">#	c #D1D1D1",
",#	c #B9B9B9",
"'#	c #626262",
")#	c #4D4D4D",
"!#	c #323232",
"~#	c #2E2E2E",
"{#	c #2E2E30",
"]#	c #8F8F90",
"^#	c #424244",
"/#	c #78797A",
"(#	c #7C7C7D",
"_#	c #888989",
":#	c #B3B4B5",
"<#	c #C0C1C2",
"[#	c #D8D9D9",
"}#	c #9FA0A1",
"|#	c #9A9999",
"1#	c #4B4949",
"2#	c #6A6A6A",
"3#	c #F3F3F3",
"4#	c #A9A9A9",
"5#	c #3A3A3A",
"6#	c #2D2D2D",
"7#	c #2A2A2C",
"8#	c #414243",
"9#	c #7B7C7D",
"0#	c #848586",
"a#	c #C7C7C8",
"b#	c #C9CACA",
"c#	c #9A9899",
"d#	c #797777",
"e#	c #666666",
"f#	c #969696",
"g#	c #A5A5A5",
"h#	c #5B5B5B",
"i#	c #535353",
"j#	c #2C2C2D",
"k#	c #525253",
"l#	c #414142",
"m#	c #868788",
"n#	c #ACADAE",
"o#	c #A8A9AA",
"p#	c #B7B7B8",
"q#	c #979697",
"r#	c #4C4A4A",
"s#	c #888888",
"t#	c #525252",
"u#	c #2F2F30",
"v#	c #515152",
"w#	c #404042",
"x#	c #7C7D7E",
"y#	c #A3A4A5",
"z#	c #A9AAAB",
"A#	c #B2B3B4",
"B#	c #9A9B9C",
"C#	c #939292",
"D#	c #737171",
"E#	c #4A4848",
"F#	c #514F4F",
"G#	c #8A8A8A",
"H#	c #494949",
"I#	c #2C2C2C",
"J#	c #2B2B2B",
"K#	c #2B2B2C",
"L#	c #505152",
"M#	c #717172",
"N#	c #9E9FA0",
"O#	c #9D9E9F",
"P#	c #A6A7A8",
"Q#	c #AAABAC",
"R#	c #8E8D8D",
"S#	c #878787",
"T#	c #2A2A2A",
"U#	c #504F51",
"V#	c #98999A",
"W#	c #9F9FA0",
"X#	c #A8A9A9",
"Y#	c #A7A8A9",
"Z#	c #868585",
"`#	c #787878",
" $	c #414141",
".$	c #5E5E5E",
"+$	c #292929",
"@$	c #282828",
"#$	c #525354",
"$$	c #929393",
"%$	c #424142",
"&$	c #636464",
"*$	c #727374",
"=$	c #999A9A",
"-$	c #989999",
";$	c #9B9C9D",
">$	c #A1A2A3",
",$	c #A6A7A6",
"'$	c #908E90",
")$	c #6D6C6C",
"!$	c #C4C4C4",
"~$	c #B8B8B8",
"{$	c #6F6F6F",
"]$	c #353536",
"^$	c #363636",
"/$	c #757677",
"($	c #88898A",
"_$	c #A2A3A4",
":$	c #969797",
"<$	c #868586",
"[$	c #4D4A4B",
"}$	c #3D3A3A",
"|$	c #494545",
"1$	c #D9D9D9",
"2$	c #C3C3C3",
"3$	c #282829",
"4$	c #29292A",
"5$	c #262627",
"6$	c #111111",
"7$	c #49494A",
"8$	c #6C6C6D",
"9$	c #7A7B7B",
"0$	c #7C7D7F",
"a$	c #969798",
"b$	c #A0A1A2",
"c$	c #959697",
"d$	c #B0B1B2",
"e$	c #C3C4C5",
"f$	c #524F4F",
"g$	c #777777",
"h$	c #B5B5B5",
"i$	c #838383",
"j$	c #272728",
"k$	c #252526",
"l$	c #121212",
"m$	c #747475",
"n$	c #777879",
"o$	c #7F7F80",
"p$	c #999A9B",
"q$	c #B7B8B9",
"r$	c #B5B6B7",
"s$	c #403E3E",
"t$	c #464646",
"u$	c #202020",
"v$	c #242424",
"w$	c #646465",
"x$	c #5E5F5F",
"y$	c #6D6E6E",
"z$	c #8D8E8F",
"A$	c #979899",
"B$	c #9C9D9E",
"C$	c #949596",
"D$	c #9C9E9F",
"E$	c #757475",
"F$	c #787777",
"G$	c #5D5B5B",
"H$	c #514D4D",
"I$	c #615D5D",
"J$	c #585757",
"K$	c #4A4A4A",
"L$	c #424242",
"M$	c #242426",
"N$	c #222222",
"O$	c #101010",
"P$	c #464748",
"Q$	c #656566",
"R$	c #939495",
"S$	c #939494",
"T$	c #9A9A9B",
"U$	c #7E7C7D",
"V$	c #4B4948",
"W$	c #3C3A3A",
"X$	c #6E6E6E",
"Y$	c #B2B2B2",
"Z$	c #515151",
"`$	c #262626",
" %	c #212121",
".%	c #0F0F10",
"+%	c #4C4C4E",
"@%	c #9D9D9E",
"#%	c #99999A",
"$%	c #929394",
"%%	c #919293",
"&%	c #6C6B6B",
"*%	c #535050",
"=%	c #D6D6D6",
"-%	c #B6B6B6",
";%	c #2A2A2B",
">%	c #1E1E1F",
",%	c #0F0F0F",
"'%	c #4C4C4D",
")%	c #8B8C8C",
"!%	c #868687",
"~%	c #747373",
"{%	c #6F6D6D",
"]%	c #434343",
"^%	c #1D1D1D",
"/%	c #0E0E0E",
"(%	c #8A8B8B",
"_%	c #8C8D8D",
":%	c #909192",
"<%	c #939394",
"[%	c #868787",
"}%	c #706F70",
"|%	c #5C595A",
"1%	c #474444",
"2%	c #5E5A5A",
"3%	c #696868",
"4%	c #7E7E7E",
"5%	c #454545",
"6%	c #0D0D0E",
"7%	c #959696",
"8%	c #5B5958",
"9%	c #4D4949",
"0%	c #595858",
"a%	c #727373",
"b%	c #808080",
"c%	c #7C7C7C",
"d%	c #343435",
"e%	c #1C1C1C",
"f%	c #0C0C0D",
"g%	c #828283",
"h%	c #898A8A",
"i%	c #8B8B8C",
"j%	c #727070",
"k%	c #5C5A5A",
"l%	c #565555",
"m%	c #575759",
"n%	c #141414",
"o%	c #89898A",
"p%	c #686869",
"q%	c #6D6B6C",
"r%	c #615E5F",
"s%	c #4E4C4D",
"t%	c #545152",
"u%	c #525050",
"v%	c #747474",
"w%	c #616262",
"x%	c #7A7A7A",
"y%	c #6F6E6E",
"z%	c #646163",
"A%	c #6B6869",
"B%	c #545254",
"C%	c #626162",
"D%	c #646161",
"E%	c #666464",
"F%	c #6A6767",
"G%	c #686666",
"H%	c #696666",
"I%	c #656263",
"J%	c #808081",
"K%	c #5F5F60",
"L%	c #4D4C4D",
"M%	c #676768",
"N%	c #69696A",
"O%	c #595758",
"P%	c #565252",
"Q%	c #6A6869",
"R%	c #595859",
"S%	c #5A5858",
"T%	c #595857",
"U%	c #5A5959",
"V%	c #5A5859",
"W%	c #4D4B4B",
"X%	c #585657",
"Y%	c #727172",
"Z%	c #706F6F",
"`%	c #646363",
" &	c #393737",
".&	c #393636",
"+&	c #373434",
"@&	c #363333",
"#&	c #353333",
"$&	c #3A3838",
"%&	c #3D3B3A",
"                                                                                                ",
"                                                                                                ",
"                                            . + + @                                             ",
"                                  # $ % & * = - ; > , ' ) ! ~                                   ",
"                              { ] ^ / ( _ : < [ } | 1 2 3 4 5 ' 6                               ",
"                          7 8 ^ > 9 0 a b c d e f g h i j k g 2 4 / !                           ",
"                        8 l m n o b p q r s t s u v w x y z z A B C D E                         ",
"                    . ! F G H I J K L M N O P Q R S T U V W X t Y Z j `  ...                    ",
"                  7 ! +.5 = @.#.$.%.&.*.=.L -.;.>.,.'.).!.V ~.{.].^./.A C (._.                  ",
"                :.! ' <.[.}.|.1.2.3.4.5.6.7.8.9.0.a.b.'.c.d.e.f.8.2.g.h.i.j.n 7                 ",
"              k.! l.m.n.o.$.p.q.r.s.t.u.$.r M v.w.x.T s ^.v y.z.A.8.B.C.D./.E.F.G.              ",
"              H.^ I.n.J.K K.J.L.p.M.N.O.&.M.Q P.d.|.d.'.P.T Q.R.S.T.U.V.,.W.X.Y.'               ",
"            Z.l `.[. +K K.K.K.J.z .+++t.@+z #+$+%+&+7.*+).P.=+-+;+{.8.>+,+'+)+Z !+]             ",
"          ~ ~+* {+]+$.^+o.J.o./+N (+_+:+<+[+}+|+1+2+3+4+5+].6+7+;+;+{.8+9+0+a+b+c+ .            ",
"          _.) <.[.d+e+'+f+g+N $.++h+i+j+k+j+l+m+4.n+o+p+q+r+s+t+a+u+X 9+v+w+x+++y+z+A+          ",
"          ! * B+^+C+D+r.E+F+G+D. +H+I+J+K+L+M+N+K |+O+P+Q+R+S+L ~.6+Q.T+U+V+W+X+Y+c+ .          ",
"        :.Z+ .`+ @O..@q.q.w.t.+@i+@@#@K+#@k+$@%@&@*@k+=@J -@;@}.>@t+S.,@e.'@)@,.!@~@!+_.        ",
"        _.+.{@]@z K.K.N.J.'+(+i+^@#@#@K+#@/@(@_@K.}+k+:@<@[@}@|@q w 1@!.2@8.U.>+3@4@1 5@        ",
"        ] 6@7@8@g+^+^+^+M.G+9@0@J+K+K+#@I+a@b@L+c@d@N+e@f@r+g@h@i@*.w V d.S.y.U.j@k@l@m@        ",
"      ~ A+I.B+K.^+g+^+o.(+K.[+n@K+#@#@#@0@o@p@q@r@s@t@u@v@Q+w@}@%+4+v P.x@u+].y@2.(+z@A@        ",
"      . B@C@D@$.g+g+ @t.E@F@j+#@#@#@#@2+G@H@I@J@K@L@1+M@N@O@P@R+Q@R@y ~.V d.S.T.9+S@T@0 Z.      ",
"      Z.U@V@W@z J.J.z ^+^+X@#@K+#@#@@@[+Y@H@Z@`@K@ #.#+#q+@###-@g@$#%#&#u 6+u+a.8+O.Y+*#=#      ",
"      ..F -#;#&.>#V.,#@+f+'#@@K+K+#@)#!#o@~#{#`@]#^#.#u@q+/#(#P@R@q _#w :#<#u+[#;.}#|#[ 1#      ",
"      ..^ -#2#f+3#O.V.4#w.+#@@K+#@@@5#o@o@6#7#`@]#8#.#u@q+/#9###P@ +0#*+x 1@X a#b#Q c#d#^       ",
"      ..^ -#e#F+f#J.K g#D.h#K+K+#@i#!#o@o@6#j#k#]#l#.#u@q+/#9#i@##R@m#!.n#o#v p#S.G+q#[ r#      ",
"      7 U@( t@z s#h+s#f#u.+#@@#@#@t#Y@o@~#j#u#v#%#w#.#u@q+/#9#x#x#R@5+s y#x.z#n#A#B#C#D#E#      ",
"      :.% C@F#N.s#s#s#G#K z H##@#@t#Y@H@I#J#K#L#&+l#.#u@q+/#9#x#x#M#x.N#O#>@P#Q#g.K.R#0 !       ",
"        A+`.H s#s#s#S# @w. @j+h##@t#Y@~#I#T#T#U#^+ #.#u@q+/#9#9#P@9#V#o#O#W#&#X#Y#J.Z#A@        ",
"        ! * n.`#h+S#$+8@N.f+$+ $.$t#Y@~#J#+$@$#$$$%$&$u@q+/#Q+-@*$V#P#=$-$;$>$,$S@'$C H         ",
"        ..5@G )$s#G#D.!$~$e+&.{$t#i#Y@~#T#+$+$]$^$*@&$u@q+J Q+/$($;$*+y@z#y@x._$:$<$: [$        ",
"        }$|$`.n.+@O.1$2$1$G#f#S#'#K+!#~#T#3$4$5$6$7$&$8$q+S+9$0$a$b$c$x@d$e$Q.L s#i -#..        ",
"          8 f$m g$t.j@X+h$i$N.K. @K+~#~#J#@$j$k$l$|+.#:@m$n$o$a$O#p$c$q$_$r$_$c$i : l.          ",
"          s$Z+<.{+K +@$+#++@$+b+N.#+t$T#u$6#5$v$6$7$w$x$y$z$A$B$;$c$C$C$c$c$D$E$F$G$_.          ",
"            8 H$I$J$^+#+#+#+#+8@K ^+]@K$L$+$M$N$O$P$Q$]#4.r$O#;$R$C$R$R$S$T$@.U$4 V$            ",
"            W$A+= {@X$#+i$i$#+w.g+Y$H#Z$H#H#`$ %.%+%N @%#%-$:#V#>$$%%%%%C$Q@F$&%*%.             ",
"              ..) `.{+G#$+8@8@w.=%-%i+j+0@j+;%>%,%'%b+)%c@$%p#q$Q.5+K@4.!%~%{%; $               ",
"                $ F {@E#:+S#8@@+d+~$`#H#t$]%j#^%/%)#i$(%_%u.y@:%=+_%<%[%:@}%|%1%                ",
"                  H.F 2%> 3%G#w. @(+4%{$i#5%6#^%6%'%$#h+(%7%Q ;$S@R$f }%{%8%|$                  ",
"                    8 9%m@( 0%a%g+F@b% +c%;#d%e%f%'%g%s#h%(%i%c$g@X$j%_ > 1%                    ",
"                      _.l * n k%l%s##+8@i$ +m%N$n%v#$#o%_#&+h%p%q%q%r%' 8                       ",
"                      s%t%! U@= C@u%9 {%]@v%9@e#w%:+x%v%v%y%z%A%7@6@%  .B%                      ",
"                      v#:@C%l ! 9%* `.G n D%E%F%F%G%H%I%I A@G f$1%l.E$J%K%                      ",
"                      L%M%M%N%O%A+] l ^ ' *%P%= m.= = 6@' ) |$^ Q%!%B f R%                      ",
"                        S%T%T%U%V%{+W%% A+1%1%A+|$1%A+A+E#l.X%o y%Y%Z%`%                        ",
"                          k. & & & & &.&+&+&@&#&#&@&+&+&.&$&$&G.%&{                             ",
"                                                                                                ",
"                                                                                                ",
"                                                                                                "};
